# xmcd
#
# Track frame offsets: 
#        150
#        13851
#        25176
#        45554
#        58192
#        70717
#        81610
#        91171
#        100491
#        109678
#        118742
#        134230
#        143781
#
# Disc length: 2109 seconds
#
# Revision: 0
# Processed by: cddbd v1.5.2PL0 Copyright (c) Steve Scherf et al.
# Submitted via: ExactAudioCopy v1.0b4
#
DISCID=bc083b0d
DTITLE=Shot Jackson and Buddy Emmons - The Steel Guitar and Dobro Sounds o
DTITLE=f Shot Jackson and Buddy Emmons
DYEAR=2013
DGENRE=Country
TTITLE0=I'll Be All Smiles Tonight
TTITLE1=Honky Tonk Angels
TTITLE2=Waltz Medley
TTITLE3=Hawaiin Honeymoon
TTITLE4=Plantation Home
TTITLE5=Moon Over Tahiti
TTITLE6=Houng Dog Blues
TTITLE7=Riding The Rails
TTITLE8=Singing Strings Of Steel
TTITLE9=Fort Worth Drag
TTITLE10=Gospel Medley
TTITLE11=Smokey Mountain Rag
TTITLE12=Aloha
EXTD=
EXTT0=
EXTT1=
EXTT2=
EXTT3=
EXTT4=
EXTT5=
EXTT6=
EXTT7=
EXTT8=
EXTT9=
EXTT10=
EXTT11=
EXTT12=
PLAYORDER=
